<?xml version="1.0" standalone="no"?><!DOCTYPE svg PUBLIC "-//W3C//DTD SVG 1.1//EN" "http://www.w3.org/Graphics/SVG/1.1/DTD/svg11.dtd"><svg t="1735950181468" class="icon" viewBox="0 0 1024 1024" version="1.1" xmlns="http://www.w3.org/2000/svg" p-id="58612" width="48" height="48" xmlns:xlink="http://www.w3.org/1999/xlink"><path d="M516.9152 507.6992m-453.5808 0a453.5808 453.5808 0 1 0 907.1616 0 453.5808 453.5808 0 1 0-907.1616 0Z" fill="#73DDDE" p-id="58613"></path><path d="M970.496 507.6992c0-49.8176-8.0384-97.7408-22.8864-142.5408l-219.8016-120.0128s-440.4224 33.6384-439.8592 34.7648c0.5632 1.1264 84.4288 90.0096 84.4288 90.0096l-137.216 132.6592 75.9296 107.2128-28.2624 154.368 148.5824 189.0816a456.19712 456.19712 0 0 0 85.4528 8.0896c250.5728-0.0512 453.632-203.1104 453.632-453.632z" fill="#4ACED1" p-id="58614"></path><path d="M801.9456 448.6144c5.6832 15.5648 5.376 33.024-2.0992 47.8208-12.0832 23.9616-37.0688 40.7552-65.3312 40.7552-39.8848 0-73.0624-33.2288-73.0624-73.0624 0 39.8336-33.2288 73.0624-73.0624 73.0624-39.8336 0-73.0624-33.2288-73.0624-73.0624 0 39.8336-33.2288 73.0624-73.0624 73.0624-39.8848 0-73.0624-33.2288-73.0624-73.0624 0 39.8336-33.2288 73.0624-73.0624 73.0624-28.2112 0-53.1456-16.6912-65.28-40.5504-7.5776-14.9504-7.7824-32.6144-1.8944-48.3328l40.4992-107.9808a22.32832 22.32832 0 0 1 20.8384-14.4384h451.3792c9.3184 0 17.664 5.8368 20.8896 14.592l39.3728 108.1344zM715.9296 297.984H314.6752c-14.592 0-27.904-11.9808-27.904-27.904 0-14.592 11.9808-26.5728 27.904-26.5728h401.2544c14.592 0 27.904 11.9808 27.904 27.904 0 14.592-11.9296 26.5728-27.904 26.5728zM305.3568 563.712c2.6624 0 5.3248 0 7.9872-1.3312h1.3312c1.3312 0 2.6624 0 3.9936-1.3312 5.3248-1.3312 9.3184-2.6624 14.592-3.9936v135.5264h365.4144V557.056c5.3248 1.3312 9.3184 2.6624 14.592 3.9936 1.3312 0 2.6624 0 3.9936 1.3312h1.3312c2.6624 0 5.3248 1.3312 7.9872 1.3312h9.3184c6.656 0 11.9808 0 18.5856-1.3312v184.6784c0 14.592-11.9808 27.904-27.904 27.904H305.3568c-14.592 0-27.904-11.9808-27.904-27.904v-184.6784c5.3248 1.3312 11.9808 1.3312 18.5856 1.3312h9.3184z" fill="#FFFFFF" p-id="58615"></path></svg>