<?xml version="1.0" standalone="no"?><!DOCTYPE svg PUBLIC "-//W3C//DTD SVG 1.1//EN" "http://www.w3.org/Graphics/SVG/1.1/DTD/svg11.dtd"><svg t="1737439026395" class="icon" viewBox="0 0 1024 1024" version="1.1" xmlns="http://www.w3.org/2000/svg" p-id="69587" width="48" height="48" xmlns:xlink="http://www.w3.org/1999/xlink"><path d="M850.688 341.344H896a85.344 85.344 0 0 1 85.344 85.312v170.688A85.344 85.344 0 0 1 896 682.656h-45.312A341.376 341.376 0 0 1 512 981.344V896a256 256 0 0 0 256-256V384a256 256 0 1 0-512 0v298.656H128a85.344 85.344 0 0 1-85.344-85.312V426.656A85.344 85.344 0 0 1 128 341.344h45.312a341.376 341.376 0 0 1 677.376 0zM128 426.656v170.688h42.656V426.656H128z m725.344 0v170.688H896V426.656h-42.656z" fill="#4677F5" p-id="69588"></path><path d="M331.104 673.504l45.216-72.384A254.816 254.816 0 0 0 512 640c48 0.064 95.04-13.408 135.68-38.88l45.216 72.384A339.744 339.744 0 0 1 512 725.344a339.813 339.813 0 0 1-180.896-51.84z" fill="#4677F5" p-id="69589"></path></svg>